<svg width="64" height="64" viewBox="0 0 64 64" fill="none" xmlns="http://www.w3.org/2000/svg">
<path d="M23.8085 49.06C23.8085 49.06 21.425 50.447 25.507 50.915C30.453 51.48 32.9805 51.399 38.4295 50.369C38.4295 50.369 39.865 51.2665 41.866 52.0445C29.6465 57.2795 14.212 51.741 23.8085 49.06ZM22.3145 42.2275C22.3145 42.2275 19.6405 44.207 23.726 44.63C29.0095 45.1755 33.181 45.22 40.403 43.83C40.403 43.83 41.3995 44.8425 42.969 45.3955C28.198 49.7155 11.746 45.7355 22.3145 42.2275Z" fill="#0074BD"/>
<path d="M34.901 30.6355C37.9135 34.103 34.111 37.2205 34.111 37.2205C34.111 37.2205 41.7555 33.275 38.2455 28.332C34.966 23.7245 32.452 21.436 46.063 13.542C46.063 13.5425 24.6975 18.877 34.901 30.6355Z" fill="#EA2D2E"/>
<path d="M51.0615 54.1145C51.0615 54.1145 52.826 55.5695 49.1175 56.694C42.0665 58.83 19.7645 59.474 13.5705 56.7795C11.345 55.8105 15.52 54.467 16.8335 54.1835C18.203 53.887 18.985 53.941 18.985 53.941C16.5085 52.1975 2.97849 57.366 12.1135 58.8485C37.024 62.8865 57.522 57.03 51.0615 54.1145ZM24.956 35.147C24.956 35.147 13.613 37.8415 20.9395 38.821C24.0335 39.235 30.1985 39.14 35.945 38.658C40.64 38.2635 45.3515 37.421 45.3515 37.421C45.3515 37.421 43.6975 38.1305 42.4995 38.9475C30.9785 41.978 8.72749 40.5665 15.134 37.4685C20.55 34.849 24.956 35.147 24.956 35.147ZM45.3045 46.5205C57.015 40.437 51.6 34.5905 47.8205 35.378C46.8965 35.5705 46.482 35.738 46.482 35.738C46.482 35.738 46.826 35.1985 47.482 34.9665C54.9585 32.339 60.7075 42.718 45.0705 46.829C45.0705 46.828 45.25 46.6655 45.3045 46.5205Z" fill="#0074BD"/>
<path d="M38.2455 0.793457C38.2455 0.793457 44.7295 7.28146 32.094 17.255C21.961 25.258 29.7835 29.82 32.0905 35.0345C26.175 29.698 21.836 24.9995 24.7465 20.627C29.0205 14.21 40.861 11.0975 38.2455 0.793457Z" fill="#EA2D2E"/>
<path d="M26.107 63.0105C37.345 63.729 54.607 62.6105 55.0155 57.2925C55.0155 57.2925 54.23 59.3085 45.727 60.908C36.134 62.714 24.3 62.5035 17.2835 61.345C17.2835 61.3455 18.721 62.5355 26.107 63.0105Z" fill="#0074BD"/>
</svg>
