<svg width="64" height="64" viewBox="0 0 64 64" fill="none" xmlns="http://www.w3.org/2000/svg">
<path d="M56.268 29.4665L34.5346 7.73317C33.868 7.0665 32.9346 6.6665 32.0013 6.6665C31.068 6.6665 30.1346 7.0665 29.468 7.73317L24.8013 12.3998L30.268 17.8665C30.8013 17.5998 31.3346 17.4665 32.0013 17.4665C34.268 17.4665 36.0013 19.1998 36.0013 21.4665C36.0013 22.1332 35.868 22.6665 35.6013 23.1998L40.9346 28.5332C41.468 28.2665 42.0013 28.1332 42.668 28.1332C44.9346 28.1332 46.668 29.8665 46.668 32.1332C46.668 34.3998 44.9346 36.1332 42.668 36.1332C40.4013 36.1332 38.668 34.3998 38.668 32.1332C38.668 31.4665 38.8013 30.9332 39.068 30.3998L33.7346 25.0665C33.6013 25.0665 33.468 25.1998 33.3346 25.1998V39.0665C34.9346 39.5998 36.0013 41.0665 36.0013 42.7998C36.0013 45.0665 34.268 46.7998 32.0013 46.7998C29.7346 46.7998 28.0013 45.0665 28.0013 42.7998C28.0013 41.0665 29.068 39.5998 30.668 39.0665V25.0665C29.068 24.5332 28.0013 23.0665 28.0013 21.3332C28.0013 20.6665 28.1346 20.1332 28.4013 19.5998L22.9346 14.1332L7.73464 29.4665C7.06797 30.1332 6.66797 31.0665 6.66797 31.9998C6.66797 32.9332 7.06797 33.8665 7.73464 34.5332L29.468 56.2665C30.1346 56.9332 31.068 57.3332 32.0013 57.3332C32.9346 57.3332 33.868 56.9332 34.5346 56.2665L56.268 34.5332C56.9346 33.8665 57.3346 32.9332 57.3346 31.9998C57.3346 31.0665 56.9346 30.1332 56.268 29.4665Z" fill="#F4511E"/>
</svg>
