<svg width="64" height="64" viewBox="0 0 64 64" fill="none" xmlns="http://www.w3.org/2000/svg">
<path d="M32 60.0001C31.2445 60.0004 30.5023 59.8018 29.848 59.4241L23 55.3701C21.978 54.7981 22.476 54.5961 22.814 54.4781C23.9012 54.1428 24.942 53.6725 25.912 53.0781C25.9931 53.0399 26.0826 53.0234 26.172 53.03C26.2614 53.0367 26.3475 53.0663 26.422 53.1161L31.684 56.2421C31.782 56.2939 31.8912 56.321 32.002 56.321C32.1129 56.321 32.222 56.2939 32.32 56.2421L52.84 44.3981C52.9364 44.341 53.0162 44.2596 53.0713 44.162C53.1264 44.0644 53.1549 43.9541 53.154 43.8421V20.1501C53.1543 20.0363 53.1251 19.9244 53.0694 19.8253C53.0137 19.7261 52.9333 19.643 52.836 19.5841L32.316 7.75006C32.2194 7.69499 32.1102 7.66604 31.999 7.66604C31.8878 7.66604 31.7786 7.69499 31.682 7.75006L11.174 19.5881C11.0762 19.6459 10.995 19.728 10.9382 19.8265C10.8814 19.925 10.8511 20.0364 10.85 20.1501V43.8321C10.8513 43.9435 10.8817 44.0527 10.9382 44.1489C10.9946 44.245 11.0753 44.3247 11.172 44.3801L16.8 47.6281C19.85 49.1521 21.718 47.3561 21.718 45.5521V22.1701C21.718 22.0109 21.7812 21.8583 21.8937 21.7458C22.0063 21.6333 22.1589 21.5701 22.318 21.5701H24.918C25.0771 21.5701 25.2297 21.6333 25.3423 21.7458C25.4548 21.8583 25.518 22.0109 25.518 22.1701V45.5541C25.518 49.6241 23.302 51.9541 19.442 51.9541C17.7769 51.9819 16.1381 51.5366 14.716 50.6701L9.322 47.5761C8.66772 47.1941 8.12482 46.6475 7.74728 45.9907C7.36974 45.3339 7.17072 44.5897 7.17 43.8321V20.1501C7.16765 19.391 7.36532 18.6448 7.74311 17.9865C8.12091 17.3281 8.66548 16.781 9.322 16.4001L29.844 4.55206C30.5053 4.1911 31.2466 4.00195 32 4.00195C32.7534 4.00195 33.4947 4.1911 34.156 4.55206L54.676 16.4001C55.3301 16.7814 55.873 17.3272 56.2509 17.9833C56.6287 18.6394 56.8284 19.3829 56.83 20.1401V43.8321C56.8291 44.5899 56.6298 45.3342 56.2519 45.9911C55.874 46.6479 55.3307 47.1944 54.676 47.5761L34.156 59.4241C33.5005 59.8024 32.7568 60.0011 32 60.0001Z" fill="#83CD29"/>
<path d="M28.108 35.9062C28.108 35.7471 28.1712 35.5945 28.2837 35.482C28.3962 35.3694 28.5488 35.3062 28.708 35.3062H31.362C31.5038 35.3067 31.6408 35.3574 31.7488 35.4493C31.8568 35.5412 31.9288 35.6683 31.952 35.8082C32.352 38.5102 33.552 39.8722 38.978 39.8722C43.3 39.8722 45.142 38.8942 45.142 36.6002C45.142 35.2782 44.62 34.2962 37.902 33.6382C32.286 33.0822 28.814 31.8382 28.814 27.3502C28.814 23.2102 32.304 20.7402 38.154 20.7402C44.728 20.7402 47.982 23.0222 48.394 27.9182C48.4003 28 48.3897 28.0821 48.363 28.1596C48.3364 28.2372 48.2941 28.3084 48.2388 28.3689C48.1835 28.4295 48.1164 28.478 48.0416 28.5116C47.9668 28.5452 47.8859 28.5631 47.804 28.5642H45.132C44.9979 28.5624 44.8684 28.5156 44.764 28.4315C44.6596 28.3474 44.5863 28.2308 44.556 28.1002C43.918 25.2582 42.356 24.3502 38.156 24.3502C33.436 24.3502 32.888 25.9942 32.888 27.2262C32.888 28.7182 33.536 29.1542 39.908 29.9962C46.214 30.8302 49.21 32.0102 49.21 36.4422C49.21 40.9142 45.482 43.4742 38.98 43.4742C29.99 43.4862 28.108 39.3642 28.108 35.9062Z" fill="#83CD29"/>
</svg>
