<svg width="64" height="64" viewBox="0 0 64 64" fill="none" xmlns="http://www.w3.org/2000/svg">
<g clip-path="url(#clip0_1_206)">
<path d="M19.2 19.2L20.928 17.9499C20.6637 17.5848 20.2905 17.3128 19.862 17.1729C19.4335 17.033 18.9717 17.0325 18.5429 17.1713C18.1141 17.3101 17.7402 17.5812 17.475 17.9457C17.2098 18.3102 17.0669 18.7493 17.0667 19.2H19.2ZM32 59.7333C24.6447 59.7333 17.5906 56.8114 12.3896 51.6104C7.18856 46.4094 4.26667 39.3553 4.26667 32H0C0 40.4869 3.37142 48.6263 9.37258 54.6274C15.3737 60.6286 23.5131 64 32 64V59.7333ZM59.7333 32C59.7333 35.642 59.016 39.2483 57.6223 42.6131C56.2285 45.9779 54.1857 49.0352 51.6104 51.6104C49.0352 54.1857 45.9779 56.2285 42.6131 57.6223C39.2483 59.016 35.642 59.7333 32 59.7333V64C40.4869 64 48.6263 60.6286 54.6274 54.6274C60.6286 48.6263 64 40.4869 64 32H59.7333ZM32 4.26667C35.642 4.26667 39.2483 4.98401 42.6131 6.37774C45.9779 7.77147 49.0352 9.81429 51.6104 12.3896C54.1857 14.9649 56.2285 18.0222 57.6223 21.3869C59.016 24.7517 59.7333 28.358 59.7333 32H64C64 23.5131 60.6286 15.3737 54.6274 9.37258C48.6263 3.37142 40.4869 0 32 0V4.26667ZM32 0C23.5131 0 15.3737 3.37142 9.37258 9.37258C3.37142 15.3737 0 23.5131 0 32H4.26667C4.26667 24.6447 7.18856 17.5906 12.3896 12.3896C17.5906 7.18856 24.6447 4.26667 32 4.26667V0ZM21.3333 51.2V19.2H17.0667V51.2H21.3333ZM17.472 20.4501L45.2053 58.8501L48.6613 56.3499L20.928 17.9499L17.472 20.4501ZM42.6667 17.0667V42.6667H46.9333V17.0667H42.6667Z" fill="white"/>
</g>
<defs>
<clipPath id="clip0_1_206">
<rect width="64" height="64" fill="white"/>
</clipPath>
</defs>
</svg>
