<svg width="57" height="64" viewBox="0 0 57 64" fill="none" xmlns="http://www.w3.org/2000/svg">
<g clip-path="url(#clip0_1_208)">
<path d="M45.6279 31.0731C49.8916 31.3665 53.3082 28.606 54.1898 24.7996C52.6444 22.6036 49.4032 21.5608 46.5444 23.3803C43.9741 25.2053 43.2728 28.3959 45.6279 31.0731ZM34.085 1.3415L18.6539 9.88813L22.2223 11.7656L37.6401 3.245L34.085 1.3415ZM19.4433 24.8487L34.5187 59.3462L38.5436 61.8255L21.6874 12.8646L17.6723 10.7059L1.6217 41.0755L4.55061 42.7239L18.3865 24.7214C18.6892 24.3815 19.1955 24.3705 19.4433 24.8489M46.3664 33.0515C41.9822 30.6314 41.9822 24.5479 46.3664 22.1278C50.7505 19.7076 56.2606 22.7491 56.2606 27.5896C56.2606 32.4301 50.7505 35.4717 46.3664 33.0515ZM51.3467 37.603L56.9635 54.0243L39.8116 64L33.4996 60.0713L22.1963 34.2295L4.70542 44.111L0.0174561 41.4673L16.9795 9.47412L34.0609 0L39.384 2.86713L44.7739 18.6699C34.3582 24.4286 39.5927 39.029 51.3467 37.6029" fill="white"/>
</g>
<defs>
<clipPath id="clip0_1_208">
<rect width="57" height="64" fill="white"/>
</clipPath>
</defs>
</svg>
