<svg width="64" height="64" viewBox="0 0 64 64" fill="none" xmlns="http://www.w3.org/2000/svg">
<g clip-path="url(#clip0_1_210)">
<path d="M58.844 49.1209C55.3575 49.0254 52.6955 49.3514 50.418 50.3104C49.7715 50.5839 48.7405 50.5899 48.635 51.4004C48.9905 51.7734 49.045 52.3299 49.3285 52.7889C49.8715 53.6659 50.7895 54.8454 51.608 55.4649C52.5025 56.1389 53.4245 56.8614 54.3835 57.4454C56.0905 58.4864 57.995 59.0804 59.6355 60.1214C60.6045 60.7364 61.565 61.5099 62.5105 62.2034C62.9775 62.5454 63.292 63.0784 63.897 63.2934V63.1959C63.5785 62.7899 63.4965 62.2309 63.2035 61.8074L61.9145 60.5184C60.6545 58.8464 59.055 57.3779 57.356 56.1589C56.0005 55.1844 52.9655 53.8699 52.401 52.2939L52.3015 52.1944C53.2625 52.0849 54.3875 51.7374 55.276 51.4989C56.766 51.1004 58.0985 51.2039 59.6355 50.8054L61.7175 50.2119V49.8154C60.94 49.0184 60.3855 47.9619 59.538 47.2394C57.3175 45.3489 54.8955 43.4619 52.4015 41.8879C51.0185 41.0149 49.3095 40.4464 47.843 39.7064C47.349 39.4584 46.4835 39.3274 46.1575 38.9134C45.388 37.9329 44.968 36.6889 44.3745 35.5444C43.1305 33.1479 41.9095 30.5329 40.806 28.0114C40.054 26.2929 39.564 24.5974 38.6265 23.0564C34.1265 15.6579 29.283 11.1914 21.779 6.80242C20.1815 5.86892 18.2595 5.49992 16.228 5.01742L12.9565 4.81992C12.2905 4.54242 11.599 3.72792 10.974 3.33142C8.48847 1.75992 2.11147 -1.65608 0.269468 2.83592C-0.892532 5.66992 2.00797 8.43542 3.04497 9.87292C3.77347 10.8789 4.70497 12.0094 5.22447 13.1424C5.56847 13.8884 5.62697 14.6344 5.91997 15.4219C6.63897 17.3634 7.26747 19.4764 8.19947 21.2694C8.66997 22.1774 9.18947 23.1329 9.78547 23.9454C10.149 24.4434 10.7755 24.6644 10.8755 25.4319C10.262 26.2894 10.227 27.6194 9.88347 28.7034C8.33447 33.5884 8.92047 39.6584 11.1725 43.2719C11.864 44.3834 13.493 46.7619 15.731 45.8499C17.69 45.0509 17.2525 42.5804 17.813 40.3989C17.94 39.9049 17.862 39.5414 18.11 39.2094V39.3089L19.895 42.8754C21.2155 45.0024 23.557 47.2249 25.5435 48.7249C26.573 49.5024 27.3835 50.8459 28.7155 51.3009V51.2014H28.616C28.358 50.7989 27.954 50.6329 27.626 50.3109C26.8505 49.5494 25.9875 48.6039 25.3465 47.7329C23.54 45.2819 21.944 42.5979 20.491 39.8054C19.7955 38.4714 19.192 37.0009 18.606 35.6434C18.3795 35.1199 18.3835 34.3269 17.9125 34.0574C17.272 35.0514 16.3265 35.8564 15.8305 37.0299C15.0395 38.9069 14.936 41.1979 14.643 43.5709C14.469 43.6334 14.5455 43.5904 14.444 43.6704C13.063 43.3364 12.579 41.9164 12.065 40.6959C10.768 37.6139 10.526 32.6509 11.6685 29.1004C11.9635 28.1824 13.2995 25.2919 12.7585 24.4424C12.5005 23.5969 11.649 23.1064 11.1725 22.4599C10.5825 21.6609 9.99497 20.6084 9.58647 19.6844C8.52397 17.2819 8.02997 14.5829 6.91047 12.1534C6.37547 10.9914 5.47297 9.81542 4.73097 8.78442C3.90847 7.63992 2.98897 6.79592 2.35197 5.41342C2.12547 4.92142 1.81897 4.13392 2.15297 3.63042C2.26047 3.28842 2.41097 3.14592 2.74847 3.03492C3.32247 2.59142 4.92447 3.18342 5.52197 3.43142C7.11197 4.09142 8.43797 4.72042 9.78547 5.61292C10.43 6.04042 11.0845 6.86892 11.8655 7.09942H12.758C14.1525 7.41992 15.715 7.19692 17.0195 7.59342C19.324 8.29442 21.3885 9.38442 23.2635 10.5679C28.9745 14.1754 33.6465 19.3079 36.8415 25.4349C37.355 26.4214 37.578 27.3609 38.031 28.4074C38.943 30.5169 40.0935 32.6869 41.0015 34.7514C41.9095 36.8079 42.7925 38.8864 44.0755 40.5989C44.7495 41.4994 47.351 41.9819 48.5345 42.4819C49.3645 42.8314 50.724 43.1969 51.509 43.6714C53.009 44.5759 54.462 45.6539 55.8705 46.6439C56.5715 47.1399 58.7355 48.2279 58.843 49.1224L58.844 49.1209ZM14.5415 11.3609C13.815 11.3474 13.3015 11.4389 12.7585 11.5584V11.6579H12.856C13.2035 12.3689 13.815 12.8279 14.2445 13.4409L15.2345 15.5229L15.334 15.4254C15.9475 14.9919 16.2285 14.3004 16.2245 13.2439C15.9785 12.9839 15.9435 12.6619 15.7285 12.3514C15.4475 11.9394 14.8985 11.7069 14.541 11.3614L14.5415 11.3609Z" fill="white"/>
</g>
<defs>
<clipPath id="clip0_1_210">
<rect width="64" height="64" fill="white"/>
</clipPath>
</defs>
</svg>
