<svg width="64" height="64" viewBox="0 0 64 64" fill="none" xmlns="http://www.w3.org/2000/svg">
<g clip-path="url(#clip0_1_189)">
<path d="M35.4128 55.9858L34.3291 58.6173C34.1138 59.1383 33.6216 59.4911 33.0676 59.5148C32.7016 59.5288 32.3326 59.5391 31.9598 59.5391C19.2038 59.5323 7.91756 50.5108 5.12106 38.0801L0.778809 39.0633C2.34806 46.0358 6.28681 52.3643 11.8701 56.8871C17.5181 61.4611 24.6331 63.9863 31.9118 64.0001H31.9768C32.4043 64.0001 32.8283 63.9898 33.2521 63.9726C35.5361 63.8768 37.5771 62.4411 38.4491 60.3133L39.8643 56.8733L35.4128 55.9858Z" fill="url(#paint0_linear_1_189)"/>
<path d="M1.135 40.4787C0.380562 37.7163 -0.00115289 34.8655 2.61553e-06 32.0019C2.61553e-06 18.8792 8.21575 6.88019 20.4455 2.14844L22.049 6.31144C11.522 10.3852 4.4515 20.7089 4.4515 32.0019C4.45015 34.466 4.77788 36.9192 5.426 39.2964L1.135 40.4787Z" fill="url(#paint1_linear_1_189)"/>
<path d="M56.4232 19.3245C51.664 10.159 42.296 4.4645 31.981 4.4645C28.326 4.4645 24.774 5.17025 21.43 6.558L19.7242 2.436C23.6115 0.8225 27.7347 0 31.981 0C43.9645 0 54.8435 6.61275 60.372 17.2617L56.4232 19.3245Z" fill="url(#paint2_linear_1_189)"/>
<path d="M22.4318 25.3993C25.0133 25.3993 27.116 26.7801 28.1963 29.1888L28.2818 29.3773L32.6168 27.9006L32.5245 27.6778C30.8458 23.5766 26.979 21.0273 22.432 21.0273C19.2353 21.0273 16.6368 22.0553 14.4895 24.1658C12.3563 26.2628 11.2758 28.9008 11.2758 32.0086C11.2758 35.0888 12.3563 37.7136 14.4895 39.8103C16.6368 41.9211 19.2353 42.9488 22.432 42.9488C26.979 42.9488 30.8458 40.3996 32.5245 36.3018L32.617 36.0793L28.275 34.5988L28.1928 34.7943C27.2253 37.1618 25.0713 38.5768 22.4318 38.5768C20.6335 38.5768 19.1155 37.9466 17.9118 36.7061C16.695 35.4486 16.0795 33.8691 16.0795 32.0121C16.0795 30.1413 16.6813 28.5926 17.912 27.2771C19.112 26.0296 20.6333 25.3993 22.4318 25.3993Z" fill="white"/>
<path d="M49.5852 21.4316L43.4072 37.1139L37.188 21.4316H32.1005L40.8225 42.8359L34.617 57.9321L39.065 58.8196L54.3922 21.4316H49.5852Z" fill="white"/>
<path d="M60.372 17.2617C62.6228 21.6462 64 26.7962 64 32.0675C64 44.3675 57.0822 55.0465 46.9367 60.4032L44.7448 56.5162C53.5423 51.9282 59.5515 42.7017 59.5515 32.0675C59.5515 27.4525 58.4232 23.1447 56.4232 19.3242L60.372 17.2617Z" fill="url(#paint3_linear_1_189)"/>
</g>
<defs>
<linearGradient id="paint0_linear_1_189" x1="247.799" y1="1179.29" x2="3303.22" y2="1995.11" gradientUnits="userSpaceOnUse">
<stop stop-color="#315C55"/>
<stop offset="1" stop-color="#09293F"/>
</linearGradient>
<linearGradient id="paint1_linear_1_189" x1="1197.22" y1="1047.11" x2="912.826" y2="3815.69" gradientUnits="userSpaceOnUse">
<stop stop-color="#4FB38D"/>
<stop offset="1" stop-color="#315C55"/>
</linearGradient>
<linearGradient id="paint2_linear_1_189" x1="585.094" y1="966.225" x2="2840.14" y2="1379.63" gradientUnits="userSpaceOnUse">
<stop stop-color="#4FB38D"/>
<stop offset="1" stop-color="#97DEC0"/>
</linearGradient>
<linearGradient id="paint3_linear_1_189" x1="1081.83" y1="1349.99" x2="-147.858" y2="3652.29" gradientUnits="userSpaceOnUse">
<stop stop-color="#97DEC0"/>
<stop offset="1" stop-color="#FFFFF0" stop-opacity="0"/>
</linearGradient>
<clipPath id="clip0_1_189">
<rect width="64" height="64" fill="white"/>
</clipPath>
</defs>
</svg>
