<svg width="85" height="64" viewBox="0 0 85 64" fill="none" xmlns="http://www.w3.org/2000/svg">
<g clip-path="url(#clip0_1_196)">
<path d="M73.1402 36.838C70.1831 36.8533 67.6129 37.5683 65.461 38.6253C64.6711 37.0553 63.8815 35.6567 63.7424 34.6307C63.5873 33.434 63.4017 32.7033 63.5873 31.2733C63.7733 29.8433 64.6093 27.807 64.5937 27.6517C64.5781 27.4963 64.4078 26.7657 62.7048 26.7503C61.0018 26.735 59.5309 27.0767 59.3606 27.5273C59.1902 27.978 58.8652 29.004 58.6483 30.0607C58.3542 31.6153 55.2424 37.164 53.462 40.0707C52.8889 38.9363 52.3935 37.9413 52.285 37.1487C52.1302 35.952 51.9443 35.2213 52.1302 33.7913C52.3162 32.3613 53.1522 30.3253 53.1366 30.1697C53.121 30.0143 52.9507 29.2837 51.2477 29.2683C49.5444 29.2527 48.0735 29.5947 47.9035 30.0453C47.7332 30.4963 47.5472 31.553 47.1913 32.579C46.8353 33.605 42.7012 42.869 41.6175 45.2623C41.1795 46.231 40.7201 47.1898 40.2395 48.138C40.2395 48.138 40.2239 48.1847 40.1775 48.2623C40.0265 48.5596 39.8717 48.855 39.7133 49.1483V49.1637C39.4809 49.5837 39.2332 49.972 39.1093 49.972C39.0163 49.972 38.846 48.853 39.1402 47.3297C39.7594 44.1123 41.2303 39.1073 41.215 38.9363C41.215 38.843 41.4936 37.9727 40.2551 37.5217C39.0472 37.071 38.6139 37.817 38.5053 37.817C38.3968 37.817 38.3194 38.0813 38.3194 38.0813C38.3194 38.0813 39.6668 32.4547 35.7495 32.4547C33.3034 32.4547 29.928 35.1437 28.2559 37.5683C26.355 38.6068 24.4558 39.6483 22.5582 40.6927C21.6451 41.2057 20.7005 41.7187 19.818 42.2003C19.7559 42.1383 19.6941 42.0603 19.632 41.9983C14.8943 36.9157 6.1313 33.325 6.50284 26.5017C6.64229 24.0147 7.49363 17.4863 23.3325 9.55933C36.3687 3.10867 46.7424 4.896 48.5383 8.85967C51.1083 14.5177 42.9801 25.025 29.51 26.548C24.3698 27.1233 21.6757 25.1337 20.9947 24.3877C20.2825 23.6103 20.1739 23.5637 19.9106 23.7193C19.4773 23.9527 19.7559 24.652 19.9106 25.056C20.3134 26.1127 21.9699 27.978 24.7722 28.8953C27.2495 29.7033 33.2722 30.1543 40.5646 27.3253C48.7239 24.1543 55.1029 15.3413 53.2296 7.95833C51.3559 0.466335 38.9699 -2.005 27.2495 2.176C20.2825 4.66333 12.7268 8.58 7.29241 13.6783C0.836065 19.74 -0.185927 25.0093 0.2321 27.2167C1.73421 35.0503 12.4947 40.1487 16.7988 43.9257C16.582 44.05 16.3804 44.159 16.2104 44.2523C14.0582 45.3247 5.85239 49.63 3.80874 54.1843C1.48651 59.3447 4.18062 63.0443 5.96097 63.5413C11.4883 65.0803 17.1703 62.3137 20.2204 57.7437C23.2704 53.174 22.8989 47.2363 21.4901 44.5163C21.4745 44.4853 21.4592 44.454 21.428 44.423C21.9855 44.0967 22.5582 43.7547 23.1157 43.4283C24.1403 42.8203 25.1779 42.2346 26.2278 41.6717C25.7012 43.1173 25.3141 44.8427 25.1285 47.3297C24.896 50.252 26.088 54.0443 27.6519 55.5363C28.3488 56.1897 29.1693 56.205 29.6959 56.205C31.5227 56.205 32.3435 54.6817 33.2569 52.8787C34.3716 50.6717 35.3779 48.107 35.3779 48.107C35.3779 48.107 34.1239 55.0393 37.5302 55.0393C38.7686 55.0393 40.0227 53.4227 40.5802 52.599V52.6143C40.5802 52.6143 40.6111 52.5677 40.6732 52.459C40.797 52.257 40.8744 52.1323 40.8744 52.1323V52.1017C41.3698 51.231 42.4847 49.257 44.1412 45.9773C46.2779 41.7497 48.3371 36.465 48.3371 36.465C48.3371 36.465 48.5231 37.755 49.1576 39.9C49.5294 41.159 50.3031 42.5423 50.9226 43.879C50.4273 44.5787 50.1175 44.967 50.1175 44.967L50.1331 44.9827C49.7303 45.511 49.297 46.086 48.8169 46.646C47.1292 48.6663 45.1167 50.9827 44.8378 51.6507C44.5125 52.4433 44.5901 53.0187 45.2097 53.485C45.6586 53.827 46.4635 53.8733 47.2842 53.827C48.8016 53.718 49.8698 53.345 50.396 53.112C51.2168 52.8167 52.1767 52.3657 53.0745 51.6973C54.7314 50.4693 55.7374 48.713 55.6448 46.3973C55.5983 45.1227 55.1803 43.848 54.6693 42.651C54.8243 42.4337 54.9635 42.216 55.1185 41.9983C57.7349 38.159 59.7633 33.9467 59.7633 33.9467C59.7633 33.9467 59.9492 35.2367 60.5838 37.382C60.8935 38.47 61.5284 39.6513 62.0855 40.8013C59.6239 42.8067 58.1065 45.138 57.5646 46.6613C56.5894 49.4903 57.3478 50.7647 58.7878 51.06C59.4379 51.2 60.3669 50.889 61.0483 50.5937C61.9152 50.314 62.9372 49.8323 63.9127 49.117C65.5695 47.8893 67.164 46.1793 67.071 43.8637C67.0245 42.8067 66.7459 41.765 66.3588 40.7547C68.4489 39.8847 71.143 39.4027 74.5799 39.8067C81.95 40.677 83.4053 45.2933 83.1264 47.2367C82.8478 49.1793 81.2995 50.2363 80.7889 50.5627C80.2775 50.8893 80.1075 50.998 80.154 51.231C80.2158 51.573 80.4635 51.5577 80.8971 51.4953C81.5011 51.3867 84.7679 49.9253 84.907 46.3503C85.1395 41.7807 80.8041 36.7913 73.1402 36.838ZM16.2878 56.0807C13.8414 58.754 10.4354 59.7643 8.96452 58.9097C7.38538 57.9923 8.00462 54.0443 11.0082 51.2157C12.835 49.4903 15.1884 47.889 16.7523 46.91C17.1083 46.6923 17.6349 46.3817 18.2697 45.993C18.3779 45.9307 18.44 45.8997 18.44 45.8997L18.8116 45.6663C19.9106 49.7077 18.8581 53.2673 16.2878 56.0807ZM34.093 43.9257C33.2413 46.0087 31.461 51.34 30.3772 51.0447C29.4482 50.796 28.8751 46.7547 30.1913 42.76C30.857 40.7547 32.2658 38.361 33.0866 37.4287C34.418 35.9363 35.8889 35.4387 36.2449 36.0453C36.6941 36.838 34.6192 42.62 34.093 43.9257ZM48.786 50.9823C48.4298 51.169 48.0894 51.2933 47.9344 51.2C47.8261 51.1377 48.0894 50.889 48.0894 50.889C48.0894 50.889 49.9319 48.8997 50.6593 47.998C51.0777 47.4697 51.5728 46.848 52.0994 46.1483V46.3503C52.0994 48.7287 49.8077 50.3297 48.7857 50.9823M60.1189 48.3867C59.8556 48.2 59.9021 47.5783 60.7846 45.6353C61.1253 44.8737 61.9301 43.5993 63.3084 42.3713C63.4631 42.8687 63.5717 43.3507 63.5561 43.8013C63.5405 46.8013 61.4042 47.9203 60.1189 48.3867Z" fill="#CD6799"/>
</g>
<defs>
<clipPath id="clip0_1_196">
<rect width="85" height="64" fill="white"/>
</clipPath>
</defs>
</svg>
